<svg xmlns="http://www.w3.org/2000/svg" viewBox="0 0 500 500"><g id="freepik--Shadow--inject-14"><ellipse id="freepik--path--inject-14" cx="250" cy="416.24" rx="193.89" ry="11.32" style="fill:#f5f5f5"></ellipse></g><g id="freepik--Envelope--inject-14"><rect x="409.62" y="239.36" width="0.95" height="12.86" transform="translate(-21.64 40.37) rotate(-5.49)" style="fill:rgb(16, 152, 173)"></rect><rect x="410.92" y="256.65" width="0.95" height="5.19" transform="translate(-22.91 40.54) rotate(-5.49)" style="fill:rgb(16, 152, 173)"></rect><rect x="176.14" y="216.98" width="234.5" height="139.6" transform="translate(612.87 544.18) rotate(174.51)" style="fill:rgb(16, 152, 173)"></rect><rect x="176.14" y="216.98" width="234.5" height="139.6" transform="translate(612.87 544.18) rotate(174.51)" style="opacity:0.1"></rect><polygon points="294 293.1 170 228.52 403.42 206.08 294 293.1" style="fill:#263238;opacity:0.1"></polygon><path d="M265.75,152.38,170,228.52l233.42-22.44-108.5-56.5A26.9,26.9,0,0,0,265.75,152.38Z" style="fill:rgb(16, 152, 173)"></path><path d="M394.75,206.92,291.66,153.23a20.28,20.28,0,0,0-22,2.11l-91,72.34Z" style="fill:#263238;opacity:0.2"></path><polygon points="351.64 205.21 383.23 213.65 383.99 221.53 294 293.1 192.02 239.99 190.5 224.23 351.64 205.21" style="fill:#fff"></polygon><polyline points="351.64 205.21 357.61 221.75 383.23 213.65" style="fill:#e0e0e0"></polyline><polyline points="351.64 205.21 354.71 218.85 383.23 213.65" style="fill:#f0f0f0"></polyline><path d="M312.65,278.24l104.13,66.81L183.36,367.48l89.49-85.42A32.35,32.35,0,0,1,312.65,278.24Z" style="fill:rgb(16, 152, 173)"></path></g></svg>